<?xml version="1.0" encoding="utf-8" standalone="no"?>
<!DOCTYPE svg PUBLIC "-//W3C//DTD SVG 1.1//EN"
  "http://www.w3.org/Graphics/SVG/1.1/DTD/svg11.dtd">
<!-- Created with matplotlib (https://matplotlib.org/) -->
<svg height="305.2864pt" version="1.1" viewBox="0 0 493.286962 305.2864" width="493.286962pt" xmlns="http://www.w3.org/2000/svg" xmlns:xlink="http://www.w3.org/1999/xlink">
 <defs>
  <style type="text/css">
*{stroke-linecap:butt;stroke-linejoin:round;}
  </style>
 </defs>
 <g id="figure_1">
  <g id="patch_1">
   <path d="M 0 305.2864 
L 493.286962 305.2864 
L 493.286962 0 
L 0 0 
z
" style="fill:#ffffff;"/>
  </g>
  <g id="axes_1">
   <g id="patch_2">
    <path clip-path="url(#pc9b69e7cc0)" d="M 339.280232 260.475697 
L 351.097492 260.475697 
L 345.188862 270.8158 
z
" style="fill:#778899;"/>
   </g>
   <g id="patch_3">
    <path clip-path="url(#pc9b69e7cc0)" d="M 384.731232 260.475697 
L 396.548492 260.475697 
L 390.639862 270.8158 
z
" style="fill:#778899;"/>
   </g>
   <g id="line2d_1">
    <path clip-path="url(#pc9b69e7cc0)" d="M 127.024062 43.5608 
L 481.541862 43.5608 
" style="fill:none;stroke:#000000;stroke-linecap:square;stroke-width:2;"/>
   </g>
   <g id="line2d_2">
    <path clip-path="url(#pc9b69e7cc0)" d="M 127.024062 89.0118 
L 481.541862 89.0118 
" style="fill:none;stroke:#000000;stroke-linecap:square;stroke-width:2;"/>
   </g>
   <g id="line2d_3">
    <path clip-path="url(#pc9b69e7cc0)" d="M 127.024062 134.4628 
L 481.541862 134.4628 
" style="fill:none;stroke:#000000;stroke-linecap:square;stroke-width:2;"/>
   </g>
   <g id="line2d_4">
    <path clip-path="url(#pc9b69e7cc0)" d="M 127.024062 179.9138 
L 481.541862 179.9138 
" style="fill:none;stroke:#000000;stroke-linecap:square;stroke-width:2;"/>
   </g>
   <g id="line2d_5">
    <path clip-path="url(#pc9b69e7cc0)" d="M 127.024062 223.887642 
L 481.541862 223.887642 
" style="fill:none;stroke:#778899;stroke-linecap:square;stroke-width:2;"/>
   </g>
   <g id="line2d_6">
    <path clip-path="url(#pc9b69e7cc0)" d="M 127.024062 226.841957 
L 481.541862 226.841957 
" style="fill:none;stroke:#778899;stroke-linecap:square;stroke-width:2;"/>
   </g>
   <g id="line2d_7">
    <path clip-path="url(#pc9b69e7cc0)" d="M 127.024062 269.338642 
L 481.541862 269.338642 
" style="fill:none;stroke:#778899;stroke-linecap:square;stroke-width:2;"/>
   </g>
   <g id="line2d_8">
    <path clip-path="url(#pc9b69e7cc0)" d="M 127.024062 272.292957 
L 481.541862 272.292957 
" style="fill:none;stroke:#778899;stroke-linecap:square;stroke-width:2;"/>
   </g>
   <g id="patch_4">
    <path clip-path="url(#pc9b69e7cc0)" d="M 154.521917 66.2863 
L 172.247807 66.2863 
L 172.247807 20.8353 
L 154.521917 20.8353 
z
" style="fill:#bdbdbd;opacity:0.6;"/>
   </g>
   <g id="patch_5">
    <path clip-path="url(#pc9b69e7cc0)" d="M 154.521917 111.7373 
L 172.247807 111.7373 
L 172.247807 66.2863 
L 154.521917 66.2863 
z
" style="fill:#bdbdbd;opacity:0.6;"/>
   </g>
   <g id="patch_6">
    <path clip-path="url(#pc9b69e7cc0)" d="M 154.521917 157.1883 
L 172.247807 157.1883 
L 172.247807 111.7373 
L 154.521917 111.7373 
z
" style="fill:#bdbdbd;opacity:0.6;"/>
   </g>
   <g id="patch_7">
    <path clip-path="url(#pc9b69e7cc0)" d="M 154.521917 202.6393 
L 172.247807 202.6393 
L 172.247807 157.1883 
L 154.521917 157.1883 
z
" style="fill:#bdbdbd;opacity:0.6;"/>
   </g>
   <g id="patch_8">
    <path clip-path="url(#pc9b69e7cc0)" d="M 427.227917 66.2863 
L 444.953807 66.2863 
L 444.953807 20.8353 
L 427.227917 20.8353 
z
" style="fill:#bdbdbd;opacity:0.6;"/>
   </g>
   <g id="patch_9">
    <path clip-path="url(#pc9b69e7cc0)" d="M 427.227917 111.7373 
L 444.953807 111.7373 
L 444.953807 66.2863 
L 427.227917 66.2863 
z
" style="fill:#bdbdbd;opacity:0.6;"/>
   </g>
   <g id="patch_10">
    <path clip-path="url(#pc9b69e7cc0)" d="M 427.227917 157.1883 
L 444.953807 157.1883 
L 444.953807 111.7373 
L 427.227917 111.7373 
z
" style="fill:#bdbdbd;opacity:0.6;"/>
   </g>
   <g id="patch_11">
    <path clip-path="url(#pc9b69e7cc0)" d="M 427.227917 202.6393 
L 444.953807 202.6393 
L 444.953807 157.1883 
L 427.227917 157.1883 
z
" style="fill:#bdbdbd;opacity:0.6;"/>
   </g>
   <g id="line2d_9">
    <path clip-path="url(#pc9b69e7cc0)" d="M 210.31302 134.4628 
L 210.31302 225.3648 
" style="fill:none;stroke:#778899;stroke-linecap:square;stroke-width:2;"/>
   </g>
   <g id="line2d_10">
    <path clip-path="url(#pc9b69e7cc0)" d="M 207.358705 134.4628 
L 207.358705 225.3648 
" style="fill:none;stroke:#778899;stroke-linecap:square;stroke-width:2;"/>
   </g>
   <g id="line2d_11">
    <path clip-path="url(#pc9b69e7cc0)" d="M 254.286862 179.9138 
L 254.286862 134.4628 
" style="fill:none;stroke:#6fa4ff;stroke-linecap:square;stroke-width:2;"/>
   </g>
   <g id="line2d_12">
    <path clip-path="url(#pc9b69e7cc0)" d="M 346.66602 134.4628 
L 346.66602 260.475697 
" style="fill:none;stroke:#778899;stroke-linecap:square;stroke-width:2;"/>
   </g>
   <g id="line2d_13">
    <path clip-path="url(#pc9b69e7cc0)" d="M 343.711705 134.4628 
L 343.711705 260.475697 
" style="fill:none;stroke:#778899;stroke-linecap:square;stroke-width:2;"/>
   </g>
   <g id="line2d_14">
    <path clip-path="url(#pc9b69e7cc0)" d="M 392.11702 134.4628 
L 392.11702 260.475697 
" style="fill:none;stroke:#778899;stroke-linecap:square;stroke-width:2;"/>
   </g>
   <g id="line2d_15">
    <path clip-path="url(#pc9b69e7cc0)" d="M 389.162705 134.4628 
L 389.162705 260.475697 
" style="fill:none;stroke:#778899;stroke-linecap:square;stroke-width:2;"/>
   </g>
   <g id="line2d_16">
    <path clip-path="url(#pc9b69e7cc0)" d="M 147.022502 275.3609 
L 151.567602 266.2707 
" style="fill:none;stroke:#778899;stroke-linecap:square;stroke-width:1.5;"/>
   </g>
   <g id="patch_12">
    <path clip-path="url(#pc9b69e7cc0)" d="M 208.835862 229.796272 
C 210.011102 229.796272 211.138366 229.329345 211.969386 228.498324 
C 212.800407 227.667304 213.267335 226.54004 213.267335 225.3648 
C 213.267335 224.18956 212.800407 223.062296 211.969386 222.231276 
C 211.138366 221.400255 210.011102 220.933327 208.835862 220.933327 
C 207.660622 220.933327 206.533358 221.400255 205.702338 222.231276 
C 204.871317 223.062296 204.40439 224.18956 204.40439 225.3648 
C 204.40439 226.54004 204.871317 227.667304 205.702338 228.498324 
C 206.533358 229.329345 207.660622 229.796272 208.835862 229.796272 
z
" style="stroke:#000000;stroke-linejoin:miter;stroke-width:1.5;"/>
   </g>
   <g id="patch_13">
    <path clip-path="url(#pc9b69e7cc0)" d="M 194.064287 149.234375 
L 223.607437 149.234375 
L 223.607437 119.691225 
L 194.064287 119.691225 
z
" style="fill:#05bab6;stroke:#05bab6;stroke-linejoin:miter;stroke-width:1.5;"/>
   </g>
   <g id="patch_14">
    <path clip-path="url(#pc9b69e7cc0)" d="M 254.286862 138.894272 
C 255.462102 138.894272 256.589366 138.427345 257.420386 137.596324 
C 258.251407 136.765304 258.718335 135.63804 258.718335 134.4628 
C 258.718335 133.28756 258.251407 132.160296 257.420386 131.329276 
C 256.589366 130.498255 255.462102 130.031327 254.286862 130.031327 
C 253.111622 130.031327 251.984358 130.498255 251.153338 131.329276 
C 250.322317 132.160296 249.85539 133.28756 249.85539 134.4628 
C 249.85539 135.63804 250.322317 136.765304 251.153338 137.596324 
C 251.984358 138.427345 253.111622 138.894272 254.286862 138.894272 
z
" style="fill:#6fa4ff;stroke:#6fa4ff;stroke-linejoin:miter;stroke-width:1.5;"/>
   </g>
   <g id="patch_15">
    <path clip-path="url(#pc9b69e7cc0)" d="M 254.286862 190.253902 
C 257.029089 190.253902 259.659371 189.164404 261.598419 187.225357 
C 263.537466 185.286309 264.626965 182.656027 264.626965 179.9138 
C 264.626965 177.171573 263.537466 174.541291 261.598419 172.602243 
C 259.659371 170.663196 257.029089 169.573697 254.286862 169.573697 
C 251.544635 169.573697 248.914353 170.663196 246.975305 172.602243 
C 245.036258 174.541291 243.94676 177.171573 243.94676 179.9138 
C 243.94676 182.656027 245.036258 185.286309 246.975305 187.225357 
C 248.914353 189.164404 251.544635 190.253902 254.286862 190.253902 
z
" style="fill:#6fa4ff;stroke:#6fa4ff;stroke-linejoin:miter;stroke-width:2;"/>
   </g>
   <g id="patch_16">
    <path clip-path="url(#pc9b69e7cc0)" d="M 284.966287 149.234375 
L 314.509437 149.234375 
L 314.509437 119.691225 
L 284.966287 119.691225 
z
" style="fill:#6fa4ff;stroke:#6fa4ff;stroke-linejoin:miter;stroke-width:1.5;"/>
   </g>
   <g id="patch_17">
    <path clip-path="url(#pc9b69e7cc0)" d="M 330.417287 149.234375 
L 359.960437 149.234375 
L 359.960437 119.691225 
L 330.417287 119.691225 
z
" style="stroke:#000000;stroke-linejoin:miter;stroke-width:1.5;"/>
   </g>
   <g id="patch_18">
    <path clip-path="url(#pc9b69e7cc0)" d="M 355.528965 138.894272 
C 355.528965 136.152959 354.43882 133.521118 352.500419 131.582716 
C 350.562017 129.644314 347.930176 128.55417 345.188862 128.55417 
C 342.447548 128.55417 339.815707 129.644314 337.877305 131.582716 
C 335.938904 133.521118 334.84876 136.152959 334.84876 138.894272 
" style="fill:none;stroke:#ffffff;stroke-linejoin:miter;stroke-width:2;"/>
   </g>
   <g id="patch_19">
    <path clip-path="url(#pc9b69e7cc0)" d="M 375.868287 149.234375 
L 405.411437 149.234375 
L 405.411437 119.691225 
L 375.868287 119.691225 
z
" style="stroke:#000000;stroke-linejoin:miter;stroke-width:1.5;"/>
   </g>
   <g id="patch_20">
    <path clip-path="url(#pc9b69e7cc0)" d="M 400.979965 138.894272 
C 400.979965 136.152959 399.88982 133.521118 397.951419 131.582716 
C 396.013017 129.644314 393.381176 128.55417 390.639862 128.55417 
C 387.898548 128.55417 385.266707 129.644314 383.328305 131.582716 
C 381.389904 133.521118 380.29976 136.152959 380.29976 138.894272 
" style="fill:none;stroke:#ffffff;stroke-linejoin:miter;stroke-width:2;"/>
   </g>
   <g id="line2d_17">
    <path clip-path="url(#pc9b69e7cc0)" d="M 345.188862 138.894272 
L 355.528965 128.55417 
" style="fill:none;stroke:#ffffff;stroke-linecap:square;stroke-width:2;"/>
   </g>
   <g id="line2d_18">
    <path clip-path="url(#pc9b69e7cc0)" d="M 390.639862 138.894272 
L 400.979965 128.55417 
" style="fill:none;stroke:#ffffff;stroke-linecap:square;stroke-width:2;"/>
   </g>
   <g id="line2d_19">
    <path clip-path="url(#pc9b69e7cc0)" d="M 163.384862 20.8353 
L 163.384862 66.2863 
" style="fill:none;stroke:#000000;stroke-dasharray:3.7,1.6;stroke-dashoffset:0;"/>
   </g>
   <g id="line2d_20">
    <path clip-path="url(#pc9b69e7cc0)" d="M 163.384862 66.2863 
L 163.384862 111.7373 
" style="fill:none;stroke:#000000;stroke-dasharray:3.7,1.6;stroke-dashoffset:0;"/>
   </g>
   <g id="line2d_21">
    <path clip-path="url(#pc9b69e7cc0)" d="M 163.384862 111.7373 
L 163.384862 157.1883 
" style="fill:none;stroke:#000000;stroke-dasharray:3.7,1.6;stroke-dashoffset:0;"/>
   </g>
   <g id="line2d_22">
    <path clip-path="url(#pc9b69e7cc0)" d="M 163.384862 157.1883 
L 163.384862 202.6393 
" style="fill:none;stroke:#000000;stroke-dasharray:3.7,1.6;stroke-dashoffset:0;"/>
   </g>
   <g id="line2d_23">
    <path clip-path="url(#pc9b69e7cc0)" d="M 254.286862 185.82243 
L 254.286862 174.00517 
" style="fill:none;stroke:#ffffff;stroke-linecap:square;stroke-width:2;"/>
   </g>
   <g id="line2d_24">
    <path clip-path="url(#pc9b69e7cc0)" d="M 248.378232 179.9138 
L 260.195492 179.9138 
" style="fill:none;stroke:#ffffff;stroke-linecap:square;stroke-width:2;"/>
   </g>
   <g id="line2d_25">
    <path clip-path="url(#pc9b69e7cc0)" d="M 436.090862 20.8353 
L 436.090862 66.2863 
" style="fill:none;stroke:#000000;stroke-dasharray:3.7,1.6;stroke-dashoffset:0;"/>
   </g>
   <g id="line2d_26">
    <path clip-path="url(#pc9b69e7cc0)" d="M 436.090862 66.2863 
L 436.090862 111.7373 
" style="fill:none;stroke:#000000;stroke-dasharray:3.7,1.6;stroke-dashoffset:0;"/>
   </g>
   <g id="line2d_27">
    <path clip-path="url(#pc9b69e7cc0)" d="M 436.090862 111.7373 
L 436.090862 157.1883 
" style="fill:none;stroke:#000000;stroke-dasharray:3.7,1.6;stroke-dashoffset:0;"/>
   </g>
   <g id="line2d_28">
    <path clip-path="url(#pc9b69e7cc0)" d="M 436.090862 157.1883 
L 436.090862 202.6393 
" style="fill:none;stroke:#000000;stroke-dasharray:3.7,1.6;stroke-dashoffset:0;"/>
   </g>
   <g id="text_1">
    <g clip-path="url(#pc9b69e7cc0)">
     <!-- 0x1 -->
     <defs>
      <path d="M 31.78125 66.40625 
Q 24.171875 66.40625 20.328125 58.90625 
Q 16.5 51.421875 16.5 36.375 
Q 16.5 21.390625 20.328125 13.890625 
Q 24.171875 6.390625 31.78125 6.390625 
Q 39.453125 6.390625 43.28125 13.890625 
Q 47.125 21.390625 47.125 36.375 
Q 47.125 51.421875 43.28125 58.90625 
Q 39.453125 66.40625 31.78125 66.40625 
z
M 31.78125 74.21875 
Q 44.046875 74.21875 50.515625 64.515625 
Q 56.984375 54.828125 56.984375 36.375 
Q 56.984375 17.96875 50.515625 8.265625 
Q 44.046875 -1.421875 31.78125 -1.421875 
Q 19.53125 -1.421875 13.0625 8.265625 
Q 6.59375 17.96875 6.59375 36.375 
Q 6.59375 54.828125 13.0625 64.515625 
Q 19.53125 74.21875 31.78125 74.21875 
z
" id="DejaVuSans-48"/>
      <path d="M 54.890625 54.6875 
L 35.109375 28.078125 
L 55.90625 0 
L 45.3125 0 
L 29.390625 21.484375 
L 13.484375 0 
L 2.875 0 
L 24.125 28.609375 
L 4.6875 54.6875 
L 15.28125 54.6875 
L 29.78125 35.203125 
L 44.28125 54.6875 
z
" id="DejaVuSans-120"/>
      <path d="M 12.40625 8.296875 
L 28.515625 8.296875 
L 28.515625 63.921875 
L 10.984375 60.40625 
L 10.984375 69.390625 
L 28.421875 72.90625 
L 38.28125 72.90625 
L 38.28125 8.296875 
L 54.390625 8.296875 
L 54.390625 0 
L 12.40625 0 
z
" id="DejaVuSans-49"/>
     </defs>
     <g transform="translate(201.378362 240.306495)scale(0.08 -0.08)">
      <use xlink:href="#DejaVuSans-48"/>
      <use x="63.623047" xlink:href="#DejaVuSans-120"/>
      <use x="122.802734" xlink:href="#DejaVuSans-49"/>
     </g>
    </g>
   </g>
   <g id="text_2">
    <g clip-path="url(#pc9b69e7cc0)">
     <!-- X -->
     <defs>
      <path d="M 6.296875 72.90625 
L 16.890625 72.90625 
L 35.015625 45.796875 
L 53.21875 72.90625 
L 63.8125 72.90625 
L 40.375 37.890625 
L 65.375 0 
L 54.78125 0 
L 34.28125 31 
L 13.625 0 
L 2.984375 0 
L 29 38.921875 
z
" id="DejaVuSans-88"/>
     </defs>
     <g transform="translate(204.383362 138.049987)scale(0.13 -0.13)">
      <use xlink:href="#DejaVuSans-88"/>
     </g>
    </g>
   </g>
   <g id="text_3">
    <g clip-path="url(#pc9b69e7cc0)">
     <!-- H -->
     <defs>
      <path d="M 9.8125 72.90625 
L 19.671875 72.90625 
L 19.671875 43.015625 
L 55.515625 43.015625 
L 55.515625 72.90625 
L 65.375 72.90625 
L 65.375 0 
L 55.515625 0 
L 55.515625 34.71875 
L 19.671875 34.71875 
L 19.671875 0 
L 9.8125 0 
z
" id="DejaVuSans-72"/>
     </defs>
     <g transform="translate(294.849659 138.049987)scale(0.13 -0.13)">
      <use xlink:href="#DejaVuSans-72"/>
     </g>
    </g>
   </g>
   <g id="text_4">
    <g clip-path="url(#pc9b69e7cc0)">
     <!-- 0 -->
     <g transform="translate(356.551612 264.107825)scale(0.104 -0.104)">
      <use xlink:href="#DejaVuSans-48"/>
     </g>
    </g>
   </g>
   <g id="text_5">
    <g clip-path="url(#pc9b69e7cc0)">
     <!-- 1 -->
     <g transform="translate(402.002612 264.107825)scale(0.104 -0.104)">
      <use xlink:href="#DejaVuSans-49"/>
     </g>
    </g>
   </g>
   <g id="text_6">
    <g clip-path="url(#pc9b69e7cc0)">
     <!-- ${sender}_{0}$ -->
     <defs>
      <path d="M 50 53.078125 
L 48.296875 44.578125 
Q 44.734375 46.53125 40.765625 47.5 
Q 36.8125 48.484375 32.625 48.484375 
Q 25.53125 48.484375 21.453125 46.0625 
Q 17.390625 43.65625 17.390625 39.5 
Q 17.390625 34.671875 26.859375 32.078125 
Q 27.59375 31.890625 27.9375 31.78125 
L 30.8125 30.90625 
Q 39.796875 28.421875 42.796875 25.6875 
Q 45.796875 22.953125 45.796875 18.21875 
Q 45.796875 9.515625 38.890625 4.046875 
Q 31.984375 -1.421875 20.796875 -1.421875 
Q 16.453125 -1.421875 11.671875 -0.578125 
Q 6.890625 0.25 1.125 2 
L 2.875 11.28125 
Q 7.8125 8.734375 12.59375 7.421875 
Q 17.390625 6.109375 21.78125 6.109375 
Q 28.375 6.109375 32.5 8.9375 
Q 36.625 11.765625 36.625 16.109375 
Q 36.625 20.796875 25.78125 23.6875 
L 24.859375 23.921875 
L 21.78125 24.703125 
Q 14.9375 26.515625 11.765625 29.46875 
Q 8.59375 32.421875 8.59375 37.015625 
Q 8.59375 45.75 15.15625 50.875 
Q 21.734375 56 33.015625 56 
Q 37.453125 56 41.671875 55.265625 
Q 45.90625 54.546875 50 53.078125 
z
" id="DejaVuSans-Oblique-115"/>
      <path d="M 48.09375 32.234375 
Q 48.25 33.015625 48.3125 33.84375 
Q 48.390625 34.671875 48.390625 35.5 
Q 48.390625 41.453125 44.890625 44.921875 
Q 41.40625 48.390625 35.40625 48.390625 
Q 28.71875 48.390625 23.578125 44.15625 
Q 18.453125 39.9375 15.828125 32.171875 
z
M 55.90625 25.203125 
L 14.109375 25.203125 
Q 13.8125 23.34375 13.71875 22.265625 
Q 13.625 21.1875 13.625 20.40625 
Q 13.625 13.625 17.796875 9.90625 
Q 21.96875 6.203125 29.59375 6.203125 
Q 35.453125 6.203125 40.671875 7.515625 
Q 45.90625 8.84375 50.390625 11.375 
L 48.6875 2.484375 
Q 43.84375 0.53125 38.6875 -0.4375 
Q 33.546875 -1.421875 28.21875 -1.421875 
Q 16.84375 -1.421875 10.71875 4.015625 
Q 4.59375 9.46875 4.59375 19.484375 
Q 4.59375 28.03125 7.640625 35.375 
Q 10.6875 42.71875 16.609375 48.484375 
Q 20.40625 52.09375 25.65625 54.046875 
Q 30.90625 56 36.8125 56 
Q 46.09375 56 51.578125 50.4375 
Q 57.078125 44.875 57.078125 35.5 
Q 57.078125 33.25 56.78125 30.6875 
Q 56.5 28.125 55.90625 25.203125 
z
" id="DejaVuSans-Oblique-101"/>
      <path d="M 55.71875 33.015625 
L 49.3125 0 
L 40.28125 0 
L 46.6875 32.671875 
Q 47.125 34.96875 47.359375 36.71875 
Q 47.609375 38.484375 47.609375 39.5 
Q 47.609375 43.609375 45.015625 45.890625 
Q 42.4375 48.1875 37.796875 48.1875 
Q 30.5625 48.1875 25.34375 43.375 
Q 20.125 38.578125 18.5 30.328125 
L 12.5 0 
L 3.515625 0 
L 14.109375 54.6875 
L 23.09375 54.6875 
L 21.296875 46.09375 
Q 25.046875 50.828125 30.3125 53.40625 
Q 35.59375 56 41.40625 56 
Q 48.640625 56 52.609375 52.09375 
Q 56.59375 48.1875 56.59375 41.109375 
Q 56.59375 39.359375 56.375 37.359375 
Q 56.15625 35.359375 55.71875 33.015625 
z
" id="DejaVuSans-Oblique-110"/>
      <path d="M 41.796875 8.203125 
Q 38.1875 3.46875 33.25 1.015625 
Q 28.328125 -1.421875 22.3125 -1.421875 
Q 14.109375 -1.421875 9.34375 4.171875 
Q 4.59375 9.765625 4.59375 19.484375 
Q 4.59375 27.59375 7.46875 34.9375 
Q 10.359375 42.28125 15.828125 48.09375 
Q 19.4375 51.953125 23.96875 53.96875 
Q 28.515625 56 33.5 56 
Q 38.765625 56 42.796875 53.453125 
Q 46.828125 50.921875 49.03125 46.1875 
L 54.890625 75.984375 
L 63.921875 75.984375 
L 49.125 0 
L 40.09375 0 
z
M 13.921875 21.09375 
Q 13.921875 14.015625 17.109375 10.0625 
Q 20.3125 6.109375 25.984375 6.109375 
Q 30.171875 6.109375 33.765625 8.125 
Q 37.359375 10.15625 40.09375 14.109375 
Q 42.96875 18.21875 44.625 23.578125 
Q 46.296875 28.953125 46.296875 34.1875 
Q 46.296875 40.96875 43.09375 44.765625 
Q 39.890625 48.578125 34.28125 48.578125 
Q 30.03125 48.578125 26.359375 46.578125 
Q 22.703125 44.578125 20.125 40.828125 
Q 17.28125 36.765625 15.59375 31.390625 
Q 13.921875 26.03125 13.921875 21.09375 
z
" id="DejaVuSans-Oblique-100"/>
      <path d="M 44.578125 46.390625 
Q 43.21875 47.125 41.453125 47.515625 
Q 39.703125 47.90625 37.703125 47.90625 
Q 30.515625 47.90625 25.140625 42.453125 
Q 19.78125 37.015625 18.015625 27.875 
L 12.5 0 
L 3.515625 0 
L 14.203125 54.6875 
L 23.1875 54.6875 
L 21.484375 46.1875 
Q 25.046875 50.921875 30 53.453125 
Q 34.96875 56 40.578125 56 
Q 42.046875 56 43.453125 55.828125 
Q 44.875 55.671875 46.296875 55.28125 
z
" id="DejaVuSans-Oblique-114"/>
     </defs>
     <g transform="translate(45.306162 48.044784)scale(0.1625 -0.1625)">
      <use transform="translate(0 0.015625)" xlink:href="#DejaVuSans-Oblique-115"/>
      <use transform="translate(52.099609 0.015625)" xlink:href="#DejaVuSans-Oblique-101"/>
      <use transform="translate(113.623047 0.015625)" xlink:href="#DejaVuSans-Oblique-110"/>
      <use transform="translate(177.001953 0.015625)" xlink:href="#DejaVuSans-Oblique-100"/>
      <use transform="translate(240.478516 0.015625)" xlink:href="#DejaVuSans-Oblique-101"/>
      <use transform="translate(302.001953 0.015625)" xlink:href="#DejaVuSans-Oblique-114"/>
      <use transform="translate(343.115234 -16.390625)scale(0.7)" xlink:href="#DejaVuSans-48"/>
     </g>
    </g>
   </g>
   <g id="text_7">
    <g clip-path="url(#pc9b69e7cc0)">
     <!-- ${sender}_{1}$ -->
     <g transform="translate(45.306162 93.495784)scale(0.1625 -0.1625)">
      <use transform="translate(0 0.015625)" xlink:href="#DejaVuSans-Oblique-115"/>
      <use transform="translate(52.099609 0.015625)" xlink:href="#DejaVuSans-Oblique-101"/>
      <use transform="translate(113.623047 0.015625)" xlink:href="#DejaVuSans-Oblique-110"/>
      <use transform="translate(177.001953 0.015625)" xlink:href="#DejaVuSans-Oblique-100"/>
      <use transform="translate(240.478516 0.015625)" xlink:href="#DejaVuSans-Oblique-101"/>
      <use transform="translate(302.001953 0.015625)" xlink:href="#DejaVuSans-Oblique-114"/>
      <use transform="translate(343.115234 -16.390625)scale(0.7)" xlink:href="#DejaVuSans-49"/>
     </g>
    </g>
   </g>
   <g id="text_8">
    <g clip-path="url(#pc9b69e7cc0)">
     <!-- ${reciever}_{0}$ -->
     <defs>
      <path d="M 53.609375 52.59375 
L 51.8125 43.703125 
Q 48.578125 46.046875 44.9375 47.21875 
Q 41.3125 48.390625 37.40625 48.390625 
Q 33.109375 48.390625 29.21875 46.875 
Q 25.34375 45.359375 22.703125 42.578125 
Q 18.5 38.328125 16.203125 32.609375 
Q 13.921875 26.90625 13.921875 20.796875 
Q 13.921875 13.421875 17.609375 9.8125 
Q 21.296875 6.203125 28.8125 6.203125 
Q 32.515625 6.203125 36.6875 7.328125 
Q 40.875 8.453125 45.40625 10.6875 
L 43.703125 1.8125 
Q 39.796875 0.203125 35.671875 -0.609375 
Q 31.546875 -1.421875 27.203125 -1.421875 
Q 16.3125 -1.421875 10.453125 4.015625 
Q 4.59375 9.46875 4.59375 19.578125 
Q 4.59375 28.078125 7.640625 35.234375 
Q 10.6875 42.390625 16.703125 48.09375 
Q 20.796875 52 26.3125 54 
Q 31.84375 56 38.375 56 
Q 42.1875 56 45.9375 55.140625 
Q 49.703125 54.296875 53.609375 52.59375 
z
" id="DejaVuSans-Oblique-99"/>
      <path d="M 18.3125 75.984375 
L 27.296875 75.984375 
L 25.09375 64.59375 
L 16.109375 64.59375 
z
M 14.203125 54.6875 
L 23.1875 54.6875 
L 12.5 0 
L 3.515625 0 
z
" id="DejaVuSans-Oblique-105"/>
      <path d="M 7.171875 54.6875 
L 16.703125 54.6875 
L 24.703125 8.203125 
L 50.875 54.6875 
L 60.40625 54.6875 
L 29.296875 0 
L 17.1875 0 
z
" id="DejaVuSans-Oblique-118"/>
     </defs>
     <g transform="translate(34.581162 138.946784)scale(0.1625 -0.1625)">
      <use transform="translate(0 0.015625)" xlink:href="#DejaVuSans-Oblique-114"/>
      <use transform="translate(41.113281 0.015625)" xlink:href="#DejaVuSans-Oblique-101"/>
      <use transform="translate(102.636719 0.015625)" xlink:href="#DejaVuSans-Oblique-99"/>
      <use transform="translate(157.617188 0.015625)" xlink:href="#DejaVuSans-Oblique-105"/>
      <use transform="translate(185.400391 0.015625)" xlink:href="#DejaVuSans-Oblique-101"/>
      <use transform="translate(246.923828 0.015625)" xlink:href="#DejaVuSans-Oblique-118"/>
      <use transform="translate(306.103516 0.015625)" xlink:href="#DejaVuSans-Oblique-101"/>
      <use transform="translate(367.626953 0.015625)" xlink:href="#DejaVuSans-Oblique-114"/>
      <use transform="translate(408.740234 -16.390625)scale(0.7)" xlink:href="#DejaVuSans-48"/>
     </g>
    </g>
   </g>
   <g id="text_9">
    <g clip-path="url(#pc9b69e7cc0)">
     <!-- ${reciever}_{1}$ -->
     <g transform="translate(34.581162 184.397784)scale(0.1625 -0.1625)">
      <use transform="translate(0 0.015625)" xlink:href="#DejaVuSans-Oblique-114"/>
      <use transform="translate(41.113281 0.015625)" xlink:href="#DejaVuSans-Oblique-101"/>
      <use transform="translate(102.636719 0.015625)" xlink:href="#DejaVuSans-Oblique-99"/>
      <use transform="translate(157.617188 0.015625)" xlink:href="#DejaVuSans-Oblique-105"/>
      <use transform="translate(185.400391 0.015625)" xlink:href="#DejaVuSans-Oblique-101"/>
      <use transform="translate(246.923828 0.015625)" xlink:href="#DejaVuSans-Oblique-118"/>
      <use transform="translate(306.103516 0.015625)" xlink:href="#DejaVuSans-Oblique-101"/>
      <use transform="translate(367.626953 0.015625)" xlink:href="#DejaVuSans-Oblique-114"/>
      <use transform="translate(408.740234 -16.390625)scale(0.7)" xlink:href="#DejaVuSans-49"/>
     </g>
    </g>
   </g>
   <g id="text_10">
    <g clip-path="url(#pc9b69e7cc0)">
     <!-- c1 -->
     <defs>
      <path d="M 48.78125 52.59375 
L 48.78125 44.1875 
Q 44.96875 46.296875 41.140625 47.34375 
Q 37.3125 48.390625 33.40625 48.390625 
Q 24.65625 48.390625 19.8125 42.84375 
Q 14.984375 37.3125 14.984375 27.296875 
Q 14.984375 17.28125 19.8125 11.734375 
Q 24.65625 6.203125 33.40625 6.203125 
Q 37.3125 6.203125 41.140625 7.25 
Q 44.96875 8.296875 48.78125 10.40625 
L 48.78125 2.09375 
Q 45.015625 0.34375 40.984375 -0.53125 
Q 36.96875 -1.421875 32.421875 -1.421875 
Q 20.0625 -1.421875 12.78125 6.34375 
Q 5.515625 14.109375 5.515625 27.296875 
Q 5.515625 40.671875 12.859375 48.328125 
Q 20.21875 56 33.015625 56 
Q 37.15625 56 41.109375 55.140625 
Q 45.0625 54.296875 48.78125 52.59375 
z
" id="DejaVuSans-99"/>
     </defs>
     <g transform="translate(89.569639 229.848784)scale(0.1625 -0.1625)">
      <use xlink:href="#DejaVuSans-99"/>
      <use x="54.980469" xlink:href="#DejaVuSans-49"/>
     </g>
    </g>
   </g>
   <g id="text_11">
    <g clip-path="url(#pc9b69e7cc0)">
     <!-- 2 -->
     <defs>
      <path d="M 19.1875 8.296875 
L 53.609375 8.296875 
L 53.609375 0 
L 7.328125 0 
L 7.328125 8.296875 
Q 12.9375 14.109375 22.625 23.890625 
Q 32.328125 33.6875 34.8125 36.53125 
Q 39.546875 41.84375 41.421875 45.53125 
Q 43.3125 49.21875 43.3125 52.78125 
Q 43.3125 58.59375 39.234375 62.25 
Q 35.15625 65.921875 28.609375 65.921875 
Q 23.96875 65.921875 18.8125 64.3125 
Q 13.671875 62.703125 7.8125 59.421875 
L 7.8125 69.390625 
Q 13.765625 71.78125 18.9375 73 
Q 24.125 74.21875 28.421875 74.21875 
Q 39.75 74.21875 46.484375 68.546875 
Q 53.21875 62.890625 53.21875 53.421875 
Q 53.21875 48.921875 51.53125 44.890625 
Q 49.859375 40.875 45.40625 35.40625 
Q 44.1875 33.984375 37.640625 27.21875 
Q 31.109375 20.453125 19.1875 8.296875 
z
" id="DejaVuSans-50"/>
     </defs>
     <g transform="translate(142.477402 264.107825)scale(0.104 -0.104)">
      <use xlink:href="#DejaVuSans-50"/>
     </g>
    </g>
   </g>
   <g id="text_12">
    <g clip-path="url(#pc9b69e7cc0)">
     <!-- c2 -->
     <g transform="translate(89.569639 275.299784)scale(0.1625 -0.1625)">
      <use xlink:href="#DejaVuSans-99"/>
      <use x="54.980469" xlink:href="#DejaVuSans-50"/>
     </g>
    </g>
   </g>
  </g>
 </g>
 <defs>
  <clipPath id="pc9b69e7cc0">
   <rect height="290.8864" width="478.886962" x="7.2" y="7.2"/>
  </clipPath>
 </defs>
</svg>
